<svg xmlns="http://www.w3.org/2000/svg"  viewBox="0 0 48 48" width="48px" height="48px"><path fill="#FFD54F" d="M20 6L6 42 42 28z"/><path fill="#FF3D00" d="M15.001 32C12.24 32 10 34.238 10 36.999c0 1.147.402 2.192 1.053 3.036l8.904-3.463C19.737 34.015 17.615 32 15.001 32zM20.501 14A4.5 4.5 0 1 0 20.501 23 4.5 4.5 0 1 0 20.501 14z"/><path fill="#3E2723" d="M28 20c-1.655 0-3 1.345-3 3.002C25 24.656 26.345 26 28 26s3-1.344 3-2.998C31 21.345 29.655 20 28 20zM28 24.5c-.829 0-1.5-.671-1.5-1.5s.671-1.5 1.5-1.5 1.5.671 1.5 1.5S28.829 24.5 28 24.5zM16 25c-1.655 0-3 1.345-3 3.002C13 29.656 14.345 31 16 31s3-1.344 3-2.998C19 26.345 17.655 25 16 25zM16 29.5c-.829 0-1.5-.671-1.5-1.5s.671-1.5 1.5-1.5 1.5.671 1.5 1.5S16.829 29.5 16 29.5z"/><path fill="#8D6E63" d="M29.872,32.522c-0.388-1.034-1.541-1.559-2.575-1.17c-1.034,0.388-6.24,3.296-5.853,4.33c0.034,0.092,0.125,0.16,0.238,0.219l8.235-3.203C29.902,32.64,29.894,32.58,29.872,32.522z"/><path fill="#8D6E63" d="M25.189,34.278c-0.486-1.52-0.307-2.893-0.307-2.893c0.033-0.043,0.034-0.094,0.03-0.146c0.049-0.19,0.059-0.392-0.016-0.591c-0.194-0.518-0.771-0.779-1.287-0.585c-0.132,0.05-0.247,0.125-0.342,0.217c-1.771,1.116-2.586,3.366-1.822,5.402c0.034,0.092,0.085,0.172,0.125,0.261l3.705-1.44C25.248,34.428,25.215,34.357,25.189,34.278z"/><g><path fill="#689F38" d="M26 28.595c0 0-.536-5.372-6-3.443C20.589 30.741 26 28.595 26 28.595zM33.595 25c0 0-5.373.535-3.443 6C35.741 30.41 33.595 25 33.595 25z"/></g><path fill="#FF9800" d="M41.858,27.188c-0.927-2.179-3.077-8.541-7.786-13.249c-4.581-4.584-10.641-7.104-13.331-7.834c-0.839-0.226-1.025-0.272-1.354,0.563c-0.268,0.676-1.03,2.987-1.406,4.069c-0.064,0.184-0.099,0.334-0.121,0.47c8.695,3.351,15.61,10.274,18.951,18.975c0.025-0.006,0.047-0.001,0.074-0.01c0.695-0.221,3.471-1.19,4.208-1.436C41.83,28.486,42.231,28.063,41.858,27.188z"/></svg>