<svg xmlns="http://www.w3.org/2000/svg" width="19.729" height="19.737" viewBox="0 0 19.729 19.737">
  <path id="clock" d="M9.369,0A9.366,9.366,0,1,1,2.751,2.743,9.362,9.362,0,0,1,9.369,0Zm4.774,8.857a.511.511,0,0,1,0,1.023H9.369a.511.511,0,0,1-.439-.259l-.007-.007h0L8.915,9.6h0V9.592h0l-.007-.015h0L8.9,9.563h0V9.555h0l-.007-.015h0l-.007-.007h0V9.519h0L8.879,9.5h0V9.5h0l-.007-.015h0V9.468h0V9.454l-.007-.007h0V9.432h0V9.417h0V9.4h0V9.4h0V9.383h0V9.368h0v-6.1a.5.5,0,0,1,.5-.5.507.507,0,0,1,.511.5V8.857Zm1.13-5.393a8.344,8.344,0,1,0,2.448,5.9,8.321,8.321,0,0,0-2.448-5.9Z" transform="translate(0.492 0.5)" fill="#989ebc" stroke="#989ebc" stroke-width="1"/>
</svg>
